solid OpenSCAD_Model
  facet normal -1 0 0
    outer loop
      vertex -7.125 0 0
      vertex -7.125 0 20
      vertex -7.125 12 0
    endloop
  endfacet
  facet normal -1 0 0
    outer loop
      vertex -7.125 8.61538 11.2176
      vertex -7.125 0 20
      vertex -7.125 12 20
    endloop
  endfacet
  facet normal -1 0 0
    outer loop
      vertex -7.125 8.06866 9.53493
      vertex -7.125 0 20
      vertex -7.125 8.61538 11.2176
    endloop
  endfacet
  facet normal -1 0 0
    outer loop
      vertex -7.125 9.5 8.495
      vertex -7.125 12 0
      vertex -7.125 8.06866 9.53493
    endloop
  endfacet
  facet normal -1 0 0
    outer loop
      vertex -7.125 12 0
      vertex -7.125 0 20
      vertex -7.125 8.06866 9.53493
    endloop
  endfacet
  facet normal -1 0 0
    outer loop
      vertex -7.125 12 0
      vertex -7.125 9.5 8.495
      vertex -7.125 10.9313 9.53493
    endloop
  endfacet
  facet normal -1 0 0
    outer loop
      vertex -7.125 12 0
      vertex -7.125 10.9313 9.53493
      vertex -7.125 12 20
    endloop
  endfacet
  facet normal -1 0 0
    outer loop
      vertex -7.125 10.9313 9.53493
      vertex -7.125 10.3846 11.2176
      vertex -7.125 12 20
    endloop
  endfacet
  facet normal -1 0 0
    outer loop
      vertex -7.125 8.61538 11.2176
      vertex -7.125 12 20
      vertex -7.125 10.3846 11.2176
    endloop
  endfacet
  facet normal 0 -1 0
    outer loop
      vertex -7.125 0 20
      vertex -7.125 0 0
      vertex -7 0 0
    endloop
  endfacet
  facet normal 0 -1 0
    outer loop
      vertex -7 0 20
      vertex -7.125 0 20
      vertex -7 0 0
    endloop
  endfacet
  facet normal 0 0 -1
    outer loop
      vertex -7.125 0 0
      vertex -7.125 12 0
      vertex -7 0 0
    endloop
  endfacet
  facet normal 0 0 -1
    outer loop
      vertex -7 0 0
      vertex -7.125 12 0
      vertex -3.5 12 0
    endloop
  endfacet
  facet normal 0 0 -1
    outer loop
      vertex -7 0 0
      vertex -3.5 12 0
      vertex -3.5 1.68847 0
    endloop
  endfacet
  facet normal 0 0 -1
    outer loop
      vertex -7 0 0
      vertex -3.5 1.68847 0
      vertex -3.88377 0.957263 0
    endloop
  endfacet
  facet normal 0 0 -1
    outer loop
      vertex -7 0 0
      vertex -3.88377 0.957263 0
      vertex -3.88377 -0.957263 0
    endloop
  endfacet
  facet normal 0 0 -1
    outer loop
      vertex 3.5 12 0
      vertex 3.54182 1.85889 0
      vertex 3.5 1.9061 0
    endloop
  endfacet
  facet normal 0 0 -1
    outer loop
      vertex 2.875 -6.37709 0
      vertex 7.125 -32 0
      vertex 2.875 -32 0
    endloop
  endfacet
  facet normal 0 0 -1
    outer loop
      vertex 3.54182 1.85889 0
      vertex 3.5 12 0
      vertex 4 0 0
    endloop
  endfacet
  facet normal 0 0 -1
    outer loop
      vertex 4 0 0
      vertex 3.5 12 0
      vertex 7.125 12 0
    endloop
  endfacet
  facet normal 0 0 -1
    outer loop
      vertex 4 0 0
      vertex 7.125 12 0
      vertex 3.54182 -1.85889 0
    endloop
  endfacet
  facet normal 0 0 -1
    outer loop
      vertex 3.54182 -1.85889 0
      vertex 7.125 12 0
      vertex 7.125 -32 0
    endloop
  endfacet
  facet normal 0 0 -1
    outer loop
      vertex 0.996204 -6.92875 0
      vertex 2.27226 -3.29194 0
      vertex 2.875 -6.37709 0
    endloop
  endfacet
  facet normal 0 0 -1
    outer loop
      vertex -0.996204 -6.92875 0
      vertex -1.41842 -3.74006 0
      vertex 0.996204 -6.92875 0
    endloop
  endfacet
  facet normal 0 0 -1
    outer loop
      vertex 3.54182 -1.85889 0
      vertex 7.125 -32 0
      vertex 2.875 -6.37709 0
    endloop
  endfacet
  facet normal 0 0 -1
    outer loop
      vertex 3.54182 -1.85889 0
      vertex 2.875 -6.37709 0
      vertex 2.27226 -3.29194 0
    endloop
  endfacet
  facet normal 0 0 -1
    outer loop
      vertex 0.482147 -3.97083 0
      vertex 0.996204 -6.92875 0
      vertex -1.41842 -3.74006 0
    endloop
  endfacet
  facet normal 0 0 -1
    outer loop
      vertex -5.88877 -3.78449 0
      vertex -7 0 0
      vertex -4.58402 -5.29025 0
    endloop
  endfacet
  facet normal 0 0 -1
    outer loop
      vertex 0.996204 -6.92875 0
      vertex 0.482147 -3.97083 0
      vertex 2.27226 -3.29194 0
    endloop
  endfacet
  facet normal 0 0 -1
    outer loop
      vertex -7 0 0
      vertex -3.88377 -0.957263 0
      vertex -2.99404 -2.65249 0
    endloop
  endfacet
  facet normal 0 0 -1
    outer loop
      vertex -7 0 0
      vertex -2.99404 -2.65249 0
      vertex -1.41842 -3.74006 0
    endloop
  endfacet
  facet normal 0 0 -1
    outer loop
      vertex -7 0 0
      vertex -1.41842 -3.74006 0
      vertex -0.996204 -6.92875 0
    endloop
  endfacet
  facet normal 0 0 -1
    outer loop
      vertex -7 0 0
      vertex -0.996204 -6.92875 0
      vertex -2.9079 -6.36742 0
    endloop
  endfacet
  facet normal 0 0 -1
    outer loop
      vertex -7 0 0
      vertex -2.9079 -6.36742 0
      vertex -4.58402 -5.29025 0
    endloop
  endfacet
  facet normal 0 0 -1
    outer loop
      vertex -7 0 0
      vertex -5.88877 -3.78449 0
      vertex -6.71645 -1.97213 0
    endloop
  endfacet
  facet normal 0 1 0
    outer loop
      vertex -7.125 12 0
      vertex -7.125 12 20
      vertex -3.5 12 0
    endloop
  endfacet
  facet normal 0 1 0
    outer loop
      vertex -3.5 12 0
      vertex -7.125 12 20
      vertex -3.5 12 20
    endloop
  endfacet
  facet normal 0 0 1
    outer loop
      vertex -7.125 12 20
      vertex -7.125 0 20
      vertex -7 0 20
    endloop
  endfacet
  facet normal 0 0 1
    outer loop
      vertex -6.71645 -1.97213 20
      vertex -7.125 12 20
      vertex -7 0 20
    endloop
  endfacet
  facet normal 0 0 1
    outer loop
      vertex -6.71645 -1.97213 20
      vertex -5.88877 -3.78449 20
      vertex -7.125 12 20
    endloop
  endfacet
  facet normal 0 0 1
    outer loop
      vertex -5.88877 -3.78449 20
      vertex -4.58402 -5.29025 20
      vertex -7.125 12 20
    endloop
  endfacet
  facet normal 0 0 1
    outer loop
      vertex -4.58402 -5.29025 20
      vertex -2.9079 -6.36742 20
      vertex -7.125 12 20
    endloop
  endfacet
  facet normal 0 0 1
    outer loop
      vertex -3.88377 -0.957263 20
      vertex -3.88377 0.957263 20
      vertex -7.125 12 20
    endloop
  endfacet
  facet normal 0 0 1
    outer loop
      vertex -3.88377 0.957263 20
      vertex -3.5 1.68847 20
      vertex -7.125 12 20
    endloop
  endfacet
  facet normal 0 0 1
    outer loop
      vertex 2.875 -32 20
      vertex 7.125 -32 20
      vertex 2.875 -6.37709 20
    endloop
  endfacet
  facet normal 0 0 1
    outer loop
      vertex 7.125 -32 20
      vertex 7.125 12 20
      vertex 2.875 -6.37709 20
    endloop
  endfacet
  facet normal 0 0 1
    outer loop
      vertex 3.5 1.9061 20
      vertex 7.125 12 20
      vertex 3.5 12 20
    endloop
  endfacet
  facet normal 0 0 1
    outer loop
      vertex 2.27226 -3.29194 20
      vertex 0.482147 -3.97083 20
      vertex 2.875 -6.37709 20
    endloop
  endfacet
  facet normal 0 0 1
    outer loop
      vertex 3.54182 1.85889 20
      vertex 7.125 12 20
      vertex 3.5 1.9061 20
    endloop
  endfacet
  facet normal 0 0 1
    outer loop
      vertex 4 0 20
      vertex 7.125 12 20
      vertex 3.54182 1.85889 20
    endloop
  endfacet
  facet normal 0 0 1
    outer loop
      vertex 2.875 -6.37709 20
      vertex 7.125 12 20
      vertex 4 0 20
    endloop
  endfacet
  facet normal 0 0 1
    outer loop
      vertex -1.41842 -3.74006 20
      vertex -2.99404 -2.65249 20
      vertex -0.996204 -6.92875 20
    endloop
  endfacet
  facet normal 0 0 1
    outer loop
      vertex 2.875 -6.37709 20
      vertex 4 0 20
      vertex 3.54182 -1.85889 20
    endloop
  endfacet
  facet normal 0 0 1
    outer loop
      vertex 0.482147 -3.97083 20
      vertex -1.41842 -3.74006 20
      vertex 0.996204 -6.92875 20
    endloop
  endfacet
  facet normal 0 0 1
    outer loop
      vertex 0.996204 -6.92875 20
      vertex 2.875 -6.37709 20
      vertex 0.482147 -3.97083 20
    endloop
  endfacet
  facet normal 0 0 1
    outer loop
      vertex -0.996204 -6.92875 20
      vertex 0.996204 -6.92875 20
      vertex -1.41842 -3.74006 20
    endloop
  endfacet
  facet normal 0 0 1
    outer loop
      vertex -2.9079 -6.36742 20
      vertex -0.996204 -6.92875 20
      vertex -2.99404 -2.65249 20
    endloop
  endfacet
  facet normal 0 0 1
    outer loop
      vertex -2.9079 -6.36742 20
      vertex -3.88377 -0.957263 20
      vertex -7.125 12 20
    endloop
  endfacet
  facet normal 0 0 1
    outer loop
      vertex -2.9079 -6.36742 20
      vertex -2.99404 -2.65249 20
      vertex -3.88377 -0.957263 20
    endloop
  endfacet
  facet normal 0 0 1
    outer loop
      vertex -3.5 1.68847 20
      vertex -3.5 12 20
      vertex -7.125 12 20
    endloop
  endfacet
  facet normal 0 0 1
    outer loop
      vertex 3.54182 -1.85889 20
      vertex 2.27226 -3.29194 20
      vertex 2.875 -6.37709 20
    endloop
  endfacet
  facet normal 2.22045e-16 0 -1
    outer loop
      vertex -3.5 10.3846 11.2176
      vertex -3.5 8.61538 11.2176
      vertex -7.125 10.3846 11.2176
    endloop
  endfacet
  facet normal 2.22045e-16 0 -1
    outer loop
      vertex -7.125 10.3846 11.2176
      vertex -3.5 8.61538 11.2176
      vertex -7.125 8.61538 11.2176
    endloop
  endfacet
  facet normal 6.86155e-17 0.951057 -0.309017
    outer loop
      vertex -3.5 8.61538 11.2176
      vertex -3.5 8.06866 9.53493
      vertex -7.125 8.61538 11.2176
    endloop
  endfacet
  facet normal 6.86155e-17 0.951057 -0.309017
    outer loop
      vertex -7.125 8.61538 11.2176
      vertex -3.5 8.06866 9.53493
      vertex -7.125 8.06866 9.53493
    endloop
  endfacet
  facet normal 6.86155e-17 -0.951057 -0.309017
    outer loop
      vertex -7.125 10.9313 9.53493
      vertex -3.5 10.9313 9.53493
      vertex -3.5 10.3846 11.2176
    endloop
  endfacet
  facet normal 6.86155e-17 -0.951057 -0.309017
    outer loop
      vertex -7.125 10.3846 11.2176
      vertex -7.125 10.9313 9.53493
      vertex -3.5 10.3846 11.2176
    endloop
  endfacet
  facet normal -1.79638e-16 -0.587785 0.809017
    outer loop
      vertex -3.5 9.5 8.495
      vertex -3.5 10.9313 9.53493
      vertex -7.125 10.9313 9.53493
    endloop
  endfacet
  facet normal -1.79638e-16 -0.587785 0.809017
    outer loop
      vertex -7.125 9.5 8.495
      vertex -3.5 9.5 8.495
      vertex -7.125 10.9313 9.53493
    endloop
  endfacet
  facet normal -1.79638e-16 0.587785 0.809017
    outer loop
      vertex -3.5 8.06866 9.53493
      vertex -3.5 9.5 8.495
      vertex -7.125 9.5 8.495
    endloop
  endfacet
  facet normal -1.79638e-16 0.587785 0.809017
    outer loop
      vertex -7.125 8.06866 9.53493
      vertex -3.5 8.06866 9.53493
      vertex -7.125 9.5 8.495
    endloop
  endfacet
  facet normal -0.989821 -0.142315 0
    outer loop
      vertex -7 0 0
      vertex -6.71645 -1.97213 0
      vertex -7 0 20
    endloop
  endfacet
  facet normal -0.989821 -0.142315 0
    outer loop
      vertex -7 0 20
      vertex -6.71645 -1.97213 0
      vertex -6.71645 -1.97213 20
    endloop
  endfacet
  facet normal -0.909632 -0.415415 0
    outer loop
      vertex -6.71645 -1.97213 0
      vertex -5.88877 -3.78449 0
      vertex -6.71645 -1.97213 20
    endloop
  endfacet
  facet normal -0.909632 -0.415415 0
    outer loop
      vertex -6.71645 -1.97213 20
      vertex -5.88877 -3.78449 0
      vertex -5.88877 -3.78449 20
    endloop
  endfacet
  facet normal -0.755749 -0.654861 0
    outer loop
      vertex -5.88877 -3.78449 0
      vertex -4.58402 -5.29025 0
      vertex -5.88877 -3.78449 20
    endloop
  endfacet
  facet normal -0.755749 -0.654861 0
    outer loop
      vertex -5.88877 -3.78449 20
      vertex -4.58402 -5.29025 0
      vertex -4.58402 -5.29025 20
    endloop
  endfacet
  facet normal -0.540641 -0.841254 0
    outer loop
      vertex -4.58402 -5.29025 20
      vertex -4.58402 -5.29025 0
      vertex -2.9079 -6.36742 0
    endloop
  endfacet
  facet normal -0.540641 -0.841254 0
    outer loop
      vertex -2.9079 -6.36742 20
      vertex -4.58402 -5.29025 20
      vertex -2.9079 -6.36742 0
    endloop
  endfacet
  facet normal -0.281733 -0.959493 0
    outer loop
      vertex -2.9079 -6.36742 20
      vertex -2.9079 -6.36742 0
      vertex -0.996204 -6.92875 0
    endloop
  endfacet
  facet normal -0.281733 -0.959493 0
    outer loop
      vertex -0.996204 -6.92875 20
      vertex -2.9079 -6.36742 20
      vertex -0.996204 -6.92875 0
    endloop
  endfacet
  facet normal 0 -1 0
    outer loop
      vertex -0.996204 -6.92875 20
      vertex -0.996204 -6.92875 0
      vertex 0.996204 -6.92875 0
    endloop
  endfacet
  facet normal 0 -1 0
    outer loop
      vertex 0.996204 -6.92875 20
      vertex -0.996204 -6.92875 20
      vertex 0.996204 -6.92875 0
    endloop
  endfacet
  facet normal 0.281733 -0.959493 0
    outer loop
      vertex 0.996204 -6.92875 20
      vertex 0.996204 -6.92875 0
      vertex 2.875 -6.37709 0
    endloop
  endfacet
  facet normal 0.281733 -0.959493 0
    outer loop
      vertex 2.875 -6.37709 20
      vertex 0.996204 -6.92875 20
      vertex 2.875 -6.37709 0
    endloop
  endfacet
  facet normal -1 0 0
    outer loop
      vertex 2.875 -27.6154 11.2176
      vertex 2.875 -32 20
      vertex 2.875 -6.37709 0
    endloop
  endfacet
  facet normal -1 0 0
    outer loop
      vertex 2.875 -10.3846 11.2176
      vertex 2.875 -32 20
      vertex 2.875 -6.37709 20
    endloop
  endfacet
  facet normal -1 0 0
    outer loop
      vertex 2.875 -29.9313 9.53493
      vertex 2.875 -32 20
      vertex 2.875 -29.3846 11.2176
    endloop
  endfacet
  facet normal -1 0 0
    outer loop
      vertex 2.875 -32 0
      vertex 2.875 -32 20
      vertex 2.875 -29.9313 9.53493
    endloop
  endfacet
  facet normal -1 0 0
    outer loop
      vertex 2.875 -27.6154 11.2176
      vertex 2.875 -6.37709 0
      vertex 2.875 -27.0687 9.53493
    endloop
  endfacet
  facet normal -1 0 0
    outer loop
      vertex 2.875 -32 0
      vertex 2.875 -28.5 8.495
      vertex 2.875 -6.37709 0
    endloop
  endfacet
  facet normal -1 0 0
    outer loop
      vertex 2.875 -28.5 8.495
      vertex 2.875 -27.0687 9.53493
      vertex 2.875 -6.37709 0
    endloop
  endfacet
  facet normal -1 0 0
    outer loop
      vertex 2.875 -29.3846 11.2176
      vertex 2.875 -32 20
      vertex 2.875 -27.6154 11.2176
    endloop
  endfacet
  facet normal -1 0 0
    outer loop
      vertex 2.875 -8.06866 9.53493
      vertex 2.875 -6.37709 0
      vertex 2.875 -9.5 8.495
    endloop
  endfacet
  facet normal -1 0 0
    outer loop
      vertex 2.875 -10.9313 9.53493
      vertex 2.875 -32 20
      vertex 2.875 -10.3846 11.2176
    endloop
  endfacet
  facet normal -1 0 0
    outer loop
      vertex 2.875 -8.61538 11.2176
      vertex 2.875 -10.3846 11.2176
      vertex 2.875 -6.37709 20
    endloop
  endfacet
  facet normal -1 0 0
    outer loop
      vertex 2.875 -6.37709 0
      vertex 2.875 -32 20
      vertex 2.875 -10.9313 9.53493
    endloop
  endfacet
  facet normal -1 0 0
    outer loop
      vertex 2.875 -6.37709 0
      vertex 2.875 -10.9313 9.53493
      vertex 2.875 -9.5 8.495
    endloop
  endfacet
  facet normal -1 0 0
    outer loop
      vertex 2.875 -6.37709 0
      vertex 2.875 -8.06866 9.53493
      vertex 2.875 -6.37709 20
    endloop
  endfacet
  facet normal -1 0 0
    outer loop
      vertex 2.875 -8.06866 9.53493
      vertex 2.875 -8.61538 11.2176
      vertex 2.875 -6.37709 20
    endloop
  endfacet
  facet normal -1 0 0
    outer loop
      vertex 2.875 -28.5 8.495
      vertex 2.875 -32 0
      vertex 2.875 -29.9313 9.53493
    endloop
  endfacet
  facet normal 0 -1 0
    outer loop
      vertex 2.875 -32 20
      vertex 2.875 -32 0
      vertex 7.125 -32 0
    endloop
  endfacet
  facet normal 0 -1 0
    outer loop
      vertex 7.125 -32 20
      vertex 2.875 -32 20
      vertex 7.125 -32 0
    endloop
  endfacet
  facet normal 1 0 0
    outer loop
      vertex 7.125 -28.5 8.495
      vertex 7.125 -32 0
      vertex 7.125 12 0
    endloop
  endfacet
  facet normal 1 0 0
    outer loop
      vertex 7.125 -8.61538 11.2176
      vertex 7.125 -8.06866 9.53493
      vertex 7.125 12 0
    endloop
  endfacet
  facet normal 1 0 0
    outer loop
      vertex 7.125 -32 20
      vertex 7.125 -32 0
      vertex 7.125 -29.9313 9.53493
    endloop
  endfacet
  facet normal 1 0 0
    outer loop
      vertex 7.125 -27.0687 9.53493
      vertex 7.125 -28.5 8.495
      vertex 7.125 12 0
    endloop
  endfacet
  facet normal 1 0 0
    outer loop
      vertex 7.125 -32 20
      vertex 7.125 -29.9313 9.53493
      vertex 7.125 -29.3846 11.2176
    endloop
  endfacet
  facet normal 1 0 0
    outer loop
      vertex 7.125 -9.5 8.495
      vertex 7.125 -27.6154 11.2176
      vertex 7.125 12 0
    endloop
  endfacet
  facet normal 1 0 0
    outer loop
      vertex 7.125 -32 20
      vertex 7.125 -29.3846 11.2176
      vertex 7.125 -27.6154 11.2176
    endloop
  endfacet
  facet normal 1 0 0
    outer loop
      vertex 7.125 8.61538 11.2176
      vertex 7.125 10.3846 11.2176
      vertex 7.125 12 20
    endloop
  endfacet
  facet normal 1 0 0
    outer loop
      vertex 7.125 -29.9313 9.53493
      vertex 7.125 -32 0
      vertex 7.125 -28.5 8.495
    endloop
  endfacet
  facet normal 1 0 0
    outer loop
      vertex 7.125 -32 20
      vertex 7.125 -27.6154 11.2176
      vertex 7.125 -10.9313 9.53493
    endloop
  endfacet
  facet normal 1 0 0
    outer loop
      vertex 7.125 -8.06866 9.53493
      vertex 7.125 -9.5 8.495
      vertex 7.125 12 0
    endloop
  endfacet
  facet normal 1 0 0
    outer loop
      vertex 7.125 12 20
      vertex 7.125 -32 20
      vertex 7.125 -10.3846 11.2176
    endloop
  endfacet
  facet normal 1 0 0
    outer loop
      vertex 7.125 8.06866 9.53493
      vertex 7.125 -8.61538 11.2176
      vertex 7.125 12 0
    endloop
  endfacet
  facet normal 1 0 0
    outer loop
      vertex 7.125 12 20
      vertex 7.125 -10.3846 11.2176
      vertex 7.125 -8.61538 11.2176
    endloop
  endfacet
  facet normal 1 0 0
    outer loop
      vertex 7.125 -10.9313 9.53493
      vertex 7.125 -27.6154 11.2176
      vertex 7.125 -9.5 8.495
    endloop
  endfacet
  facet normal 1 0 0
    outer loop
      vertex 7.125 9.5 8.495
      vertex 7.125 8.06866 9.53493
      vertex 7.125 12 0
    endloop
  endfacet
  facet normal 1 0 0
    outer loop
      vertex 7.125 8.61538 11.2176
      vertex 7.125 -8.61538 11.2176
      vertex 7.125 8.06866 9.53493
    endloop
  endfacet
  facet normal 1 0 0
    outer loop
      vertex 7.125 10.9313 9.53493
      vertex 7.125 9.5 8.495
      vertex 7.125 12 0
    endloop
  endfacet
  facet normal 1 0 0
    outer loop
      vertex 7.125 12 20
      vertex 7.125 -8.61538 11.2176
      vertex 7.125 8.61538 11.2176
    endloop
  endfacet
  facet normal 1 0 0
    outer loop
      vertex 7.125 12 20
      vertex 7.125 10.9313 9.53493
      vertex 7.125 12 0
    endloop
  endfacet
  facet normal 1 0 0
    outer loop
      vertex 7.125 12 20
      vertex 7.125 10.3846 11.2176
      vertex 7.125 10.9313 9.53493
    endloop
  endfacet
  facet normal 1 0 0
    outer loop
      vertex 7.125 -27.6154 11.2176
      vertex 7.125 -27.0687 9.53493
      vertex 7.125 12 0
    endloop
  endfacet
  facet normal 1 0 0
    outer loop
      vertex 7.125 -10.9313 9.53493
      vertex 7.125 -10.3846 11.2176
      vertex 7.125 -32 20
    endloop
  endfacet
  facet normal 0 1 0
    outer loop
      vertex 3.5 12 0
      vertex 3.5 12 20
      vertex 7.125 12 0
    endloop
  endfacet
  facet normal 0 1 0
    outer loop
      vertex 7.125 12 0
      vertex 3.5 12 20
      vertex 7.125 12 20
    endloop
  endfacet
  facet normal -1 0 0
    outer loop
      vertex 3.5 8.06866 9.53493
      vertex 3.5 12 0
      vertex 3.5 1.9061 20
    endloop
  endfacet
  facet normal -1 0 0
    outer loop
      vertex 3.5 1.9061 20
      vertex 3.5 12 0
      vertex 3.5 1.9061 0
    endloop
  endfacet
  facet normal -1 0 0
    outer loop
      vertex 3.5 9.5 8.495
      vertex 3.5 12 0
      vertex 3.5 8.06866 9.53493
    endloop
  endfacet
  facet normal -1 0 0
    outer loop
      vertex 3.5 8.61538 11.2176
      vertex 3.5 8.06866 9.53493
      vertex 3.5 1.9061 20
    endloop
  endfacet
  facet normal -1 0 0
    outer loop
      vertex 3.5 10.9313 9.53493
      vertex 3.5 12 0
      vertex 3.5 9.5 8.495
    endloop
  endfacet
  facet normal -1 0 0
    outer loop
      vertex 3.5 12 20
      vertex 3.5 12 0
      vertex 3.5 10.9313 9.53493
    endloop
  endfacet
  facet normal -1 0 0
    outer loop
      vertex 3.5 12 20
      vertex 3.5 10.9313 9.53493
      vertex 3.5 10.3846 11.2176
    endloop
  endfacet
  facet normal -1 0 0
    outer loop
      vertex 3.5 12 20
      vertex 3.5 8.61538 11.2176
      vertex 3.5 1.9061 20
    endloop
  endfacet
  facet normal -1 0 0
    outer loop
      vertex 3.5 8.61538 11.2176
      vertex 3.5 12 20
      vertex 3.5 10.3846 11.2176
    endloop
  endfacet
  facet normal -0.748511 -0.663123 0
    outer loop
      vertex 3.54182 1.85889 20
      vertex 3.5 1.9061 20
      vertex 3.54182 1.85889 0
    endloop
  endfacet
  facet normal -0.748511 -0.663123 0
    outer loop
      vertex 3.54182 1.85889 0
      vertex 3.5 1.9061 20
      vertex 3.5 1.9061 0
    endloop
  endfacet
  facet normal -0.970942 -0.239316 0
    outer loop
      vertex 4 0 20
      vertex 3.54182 1.85889 20
      vertex 4 0 0
    endloop
  endfacet
  facet normal -0.970942 -0.239316 0
    outer loop
      vertex 4 0 0
      vertex 3.54182 1.85889 20
      vertex 3.54182 1.85889 0
    endloop
  endfacet
  facet normal -0.970942 0.239316 0
    outer loop
      vertex 4 0 20
      vertex 4 0 0
      vertex 3.54182 -1.85889 20
    endloop
  endfacet
  facet normal -0.970942 0.239316 0
    outer loop
      vertex 3.54182 -1.85889 20
      vertex 4 0 0
      vertex 3.54182 -1.85889 0
    endloop
  endfacet
  facet normal -0.748511 0.663123 0
    outer loop
      vertex 3.54182 -1.85889 20
      vertex 3.54182 -1.85889 0
      vertex 2.27226 -3.29194 20
    endloop
  endfacet
  facet normal -0.748511 0.663123 0
    outer loop
      vertex 2.27226 -3.29194 20
      vertex 3.54182 -1.85889 0
      vertex 2.27226 -3.29194 0
    endloop
  endfacet
  facet normal -0.354605 0.935016 0
    outer loop
      vertex 2.27226 -3.29194 20
      vertex 2.27226 -3.29194 0
      vertex 0.482147 -3.97083 20
    endloop
  endfacet
  facet normal -0.354605 0.935016 0
    outer loop
      vertex 0.482147 -3.97083 20
      vertex 2.27226 -3.29194 0
      vertex 0.482147 -3.97083 0
    endloop
  endfacet
  facet normal 0.120536 0.992709 0
    outer loop
      vertex 0.482147 -3.97083 20
      vertex 0.482147 -3.97083 0
      vertex -1.41842 -3.74006 20
    endloop
  endfacet
  facet normal 0.120536 0.992709 0
    outer loop
      vertex -1.41842 -3.74006 20
      vertex 0.482147 -3.97083 0
      vertex -1.41842 -3.74006 0
    endloop
  endfacet
  facet normal 0.568065 0.822984 0
    outer loop
      vertex -1.41842 -3.74006 20
      vertex -1.41842 -3.74006 0
      vertex -2.99404 -2.65249 20
    endloop
  endfacet
  facet normal 0.568065 0.822984 0
    outer loop
      vertex -2.99404 -2.65249 20
      vertex -1.41842 -3.74006 0
      vertex -2.99404 -2.65249 0
    endloop
  endfacet
  facet normal 0.885456 0.464723 0
    outer loop
      vertex -3.88377 -0.957263 20
      vertex -2.99404 -2.65249 20
      vertex -2.99404 -2.65249 0
    endloop
  endfacet
  facet normal 0.885456 0.464723 0
    outer loop
      vertex -3.88377 -0.957263 0
      vertex -3.88377 -0.957263 20
      vertex -2.99404 -2.65249 0
    endloop
  endfacet
  facet normal 1 0 0
    outer loop
      vertex -3.88377 0.957263 0
      vertex -3.88377 0.957263 20
      vertex -3.88377 -0.957263 20
    endloop
  endfacet
  facet normal 1 0 0
    outer loop
      vertex -3.88377 -0.957263 0
      vertex -3.88377 0.957263 0
      vertex -3.88377 -0.957263 20
    endloop
  endfacet
  facet normal 0.885456 -0.464723 0
    outer loop
      vertex -3.5 1.68847 0
      vertex -3.5 1.68847 20
      vertex -3.88377 0.957263 20
    endloop
  endfacet
  facet normal 0.885456 -0.464723 0
    outer loop
      vertex -3.88377 0.957263 0
      vertex -3.5 1.68847 0
      vertex -3.88377 0.957263 20
    endloop
  endfacet
  facet normal 1 0 0
    outer loop
      vertex -3.5 8.61538 11.2176
      vertex -3.5 12 20
      vertex -3.5 1.68847 20
    endloop
  endfacet
  facet normal 1 0 0
    outer loop
      vertex -3.5 1.68847 0
      vertex -3.5 12 0
      vertex -3.5 1.68847 20
    endloop
  endfacet
  facet normal 1 0 0
    outer loop
      vertex -3.5 8.06866 9.53493
      vertex -3.5 8.61538 11.2176
      vertex -3.5 1.68847 20
    endloop
  endfacet
  facet normal 1 0 0
    outer loop
      vertex -3.5 10.3846 11.2176
      vertex -3.5 12 20
      vertex -3.5 8.61538 11.2176
    endloop
  endfacet
  facet normal 1 0 0
    outer loop
      vertex -3.5 10.9313 9.53493
      vertex -3.5 12 20
      vertex -3.5 10.3846 11.2176
    endloop
  endfacet
  facet normal 1 0 0
    outer loop
      vertex -3.5 9.5 8.495
      vertex -3.5 8.06866 9.53493
      vertex -3.5 12 0
    endloop
  endfacet
  facet normal 1 0 0
    outer loop
      vertex -3.5 12 0
      vertex -3.5 12 20
      vertex -3.5 10.9313 9.53493
    endloop
  endfacet
  facet normal 1 0 0
    outer loop
      vertex -3.5 12 0
      vertex -3.5 8.06866 9.53493
      vertex -3.5 1.68847 20
    endloop
  endfacet
  facet normal 1 0 0
    outer loop
      vertex -3.5 10.9313 9.53493
      vertex -3.5 9.5 8.495
      vertex -3.5 12 0
    endloop
  endfacet
  facet normal 2.22045e-16 0 -1
    outer loop
      vertex 7.125 -27.6154 11.2176
      vertex 7.125 -29.3846 11.2176
      vertex 2.875 -27.6154 11.2176
    endloop
  endfacet
  facet normal 2.22045e-16 0 -1
    outer loop
      vertex 2.875 -27.6154 11.2176
      vertex 7.125 -29.3846 11.2176
      vertex 2.875 -29.3846 11.2176
    endloop
  endfacet
  facet normal 6.86155e-17 0.951057 -0.309017
    outer loop
      vertex 7.125 -29.3846 11.2176
      vertex 7.125 -29.9313 9.53493
      vertex 2.875 -29.3846 11.2176
    endloop
  endfacet
  facet normal 6.86155e-17 0.951057 -0.309017
    outer loop
      vertex 2.875 -29.3846 11.2176
      vertex 7.125 -29.9313 9.53493
      vertex 2.875 -29.9313 9.53493
    endloop
  endfacet
  facet normal 6.86155e-17 -0.951057 -0.309017
    outer loop
      vertex 2.875 -27.0687 9.53493
      vertex 7.125 -27.0687 9.53493
      vertex 7.125 -27.6154 11.2176
    endloop
  endfacet
  facet normal 6.86155e-17 -0.951057 -0.309017
    outer loop
      vertex 2.875 -27.6154 11.2176
      vertex 2.875 -27.0687 9.53493
      vertex 7.125 -27.6154 11.2176
    endloop
  endfacet
  facet normal -1.79638e-16 -0.587785 0.809017
    outer loop
      vertex 7.125 -28.5 8.495
      vertex 7.125 -27.0687 9.53493
      vertex 2.875 -27.0687 9.53493
    endloop
  endfacet
  facet normal -1.79638e-16 -0.587785 0.809017
    outer loop
      vertex 2.875 -28.5 8.495
      vertex 7.125 -28.5 8.495
      vertex 2.875 -27.0687 9.53493
    endloop
  endfacet
  facet normal -1.79638e-16 0.587785 0.809017
    outer loop
      vertex 7.125 -29.9313 9.53493
      vertex 7.125 -28.5 8.495
      vertex 2.875 -28.5 8.495
    endloop
  endfacet
  facet normal -1.79638e-16 0.587785 0.809017
    outer loop
      vertex 2.875 -29.9313 9.53493
      vertex 7.125 -29.9313 9.53493
      vertex 2.875 -28.5 8.495
    endloop
  endfacet
  facet normal 2.22045e-16 0 -1
    outer loop
      vertex 7.125 -8.61538 11.2176
      vertex 7.125 -10.3846 11.2176
      vertex 2.875 -8.61538 11.2176
    endloop
  endfacet
  facet normal 2.22045e-16 0 -1
    outer loop
      vertex 2.875 -8.61538 11.2176
      vertex 7.125 -10.3846 11.2176
      vertex 2.875 -10.3846 11.2176
    endloop
  endfacet
  facet normal 6.86155e-17 0.951057 -0.309017
    outer loop
      vertex 7.125 -10.3846 11.2176
      vertex 7.125 -10.9313 9.53493
      vertex 2.875 -10.3846 11.2176
    endloop
  endfacet
  facet normal 6.86155e-17 0.951057 -0.309017
    outer loop
      vertex 2.875 -10.3846 11.2176
      vertex 7.125 -10.9313 9.53493
      vertex 2.875 -10.9313 9.53493
    endloop
  endfacet
  facet normal 6.86155e-17 -0.951057 -0.309017
    outer loop
      vertex 2.875 -8.06866 9.53493
      vertex 7.125 -8.06866 9.53493
      vertex 7.125 -8.61538 11.2176
    endloop
  endfacet
  facet normal 6.86155e-17 -0.951057 -0.309017
    outer loop
      vertex 2.875 -8.61538 11.2176
      vertex 2.875 -8.06866 9.53493
      vertex 7.125 -8.61538 11.2176
    endloop
  endfacet
  facet normal -1.79638e-16 -0.587785 0.809017
    outer loop
      vertex 7.125 -9.5 8.495
      vertex 7.125 -8.06866 9.53493
      vertex 2.875 -8.06866 9.53493
    endloop
  endfacet
  facet normal -1.79638e-16 -0.587785 0.809017
    outer loop
      vertex 2.875 -9.5 8.495
      vertex 7.125 -9.5 8.495
      vertex 2.875 -8.06866 9.53493
    endloop
  endfacet
  facet normal -1.79638e-16 0.587785 0.809017
    outer loop
      vertex 7.125 -10.9313 9.53493
      vertex 7.125 -9.5 8.495
      vertex 2.875 -9.5 8.495
    endloop
  endfacet
  facet normal -1.79638e-16 0.587785 0.809017
    outer loop
      vertex 2.875 -10.9313 9.53493
      vertex 7.125 -10.9313 9.53493
      vertex 2.875 -9.5 8.495
    endloop
  endfacet
  facet normal 6.86155e-17 0.951057 -0.309017
    outer loop
      vertex 7.125 8.61538 11.2176
      vertex 7.125 8.06866 9.53493
      vertex 3.5 8.61538 11.2176
    endloop
  endfacet
  facet normal 6.86155e-17 0.951057 -0.309017
    outer loop
      vertex 3.5 8.61538 11.2176
      vertex 7.125 8.06866 9.53493
      vertex 3.5 8.06866 9.53493
    endloop
  endfacet
  facet normal -1.79638e-16 0.587785 0.809017
    outer loop
      vertex 7.125 8.06866 9.53493
      vertex 7.125 9.5 8.495
      vertex 3.5 9.5 8.495
    endloop
  endfacet
  facet normal -1.79638e-16 0.587785 0.809017
    outer loop
      vertex 3.5 8.06866 9.53493
      vertex 7.125 8.06866 9.53493
      vertex 3.5 9.5 8.495
    endloop
  endfacet
  facet normal -1.79638e-16 -0.587785 0.809017
    outer loop
      vertex 7.125 9.5 8.495
      vertex 7.125 10.9313 9.53493
      vertex 3.5 10.9313 9.53493
    endloop
  endfacet
  facet normal -1.79638e-16 -0.587785 0.809017
    outer loop
      vertex 3.5 9.5 8.495
      vertex 7.125 9.5 8.495
      vertex 3.5 10.9313 9.53493
    endloop
  endfacet
  facet normal 6.86155e-17 -0.951057 -0.309017
    outer loop
      vertex 3.5 10.9313 9.53493
      vertex 7.125 10.9313 9.53493
      vertex 7.125 10.3846 11.2176
    endloop
  endfacet
  facet normal 6.86155e-17 -0.951057 -0.309017
    outer loop
      vertex 3.5 10.3846 11.2176
      vertex 3.5 10.9313 9.53493
      vertex 7.125 10.3846 11.2176
    endloop
  endfacet
  facet normal 2.22045e-16 0 -1
    outer loop
      vertex 7.125 10.3846 11.2176
      vertex 7.125 8.61538 11.2176
      vertex 3.5 10.3846 11.2176
    endloop
  endfacet
  facet normal 2.22045e-16 0 -1
    outer loop
      vertex 3.5 10.3846 11.2176
      vertex 7.125 8.61538 11.2176
      vertex 3.5 8.61538 11.2176
    endloop
  endfacet
endsolid OpenSCAD_Model
